<svg width="35" height="65" viewBox="0 0 35 65" fill="none" xmlns="http://www.w3.org/2000/svg">
<g clip-path="url(#clip0_5_137)">
<path d="M3.11811 31.8403C3.09192 33.9129 3.33561 35.9802 3.84308 37.9903C4.91903 42.3504 7.54274 48.3169 8.44607 50.342C8.00444 50.9602 7.78967 51.7111 7.83787 52.4685C7.88607 53.226 8.1943 53.9438 8.71075 54.5013C8.16538 55.1011 7.85669 55.8777 7.84193 56.6871C7.84053 57.1535 7.93532 57.6152 8.12041 58.0435C8.3055 58.4719 8.57695 58.8577 8.91788 59.177C8.424 59.7667 8.1496 60.5085 8.14113 61.2767C8.17567 62.2435 8.59034 63.158 9.29552 63.8225C10.0007 64.4869 10.9398 64.8481 11.9098 64.8279L25.5404 65.0057H25.598C26.6236 65.0121 27.6116 64.6213 28.354 63.9157C28.685 63.6017 28.9479 63.2233 29.1263 62.8039C29.3046 62.3844 29.3947 61.933 29.3909 61.4774C29.3872 61.0218 29.2896 60.5719 29.1043 60.1555C28.919 59.7391 28.6499 59.365 28.3137 59.0565C28.8297 58.4407 29.1052 57.6598 29.0893 56.8575C29.0734 56.0552 28.7674 55.2857 28.2274 54.6907C28.7797 54.0812 29.0855 53.289 29.0855 52.4676C29.0855 51.6462 28.7797 50.854 28.2274 50.2445C29.1826 48.1276 31.7315 42.2816 32.7901 37.9903C33.3023 35.9808 33.5498 33.9135 33.5266 31.8403C33.566 29.8246 33.2018 27.8214 32.4553 25.9477C31.7089 24.0741 30.5952 22.3677 29.1795 20.9284C27.7638 19.489 26.0744 18.3456 24.2101 17.5651C22.3459 16.7845 20.3443 16.3825 18.3224 16.3825C16.3004 16.3825 14.2988 16.7845 12.4346 17.5651C10.5704 18.3456 8.88097 19.489 7.46523 20.9284C6.04949 22.3677 4.93583 24.0741 4.18941 25.9477C3.44298 27.8214 3.07878 29.8246 3.11811 31.8403V31.8403ZM26.743 62.2463C26.5913 62.3936 26.4109 62.5083 26.2129 62.5832C26.015 62.6582 25.8037 62.6919 25.5922 62.6823L11.9386 62.5331C11.5767 62.5606 11.2183 62.4466 10.9391 62.2154C10.6599 61.9841 10.4819 61.6537 10.4426 61.2939C10.4642 61.0165 10.5768 60.7538 10.7629 60.5465C10.949 60.3391 11.1984 60.1986 11.4725 60.1465C11.725 60.0775 11.9464 59.9248 12.1 59.7134C12.2537 59.5021 12.3305 59.2448 12.3178 58.9841C12.305 58.7234 12.2035 58.4748 12.03 58.2793C11.8564 58.0839 11.6212 57.9533 11.3632 57.9091C11.0506 57.88 10.7578 57.7432 10.5352 57.5223C10.3127 57.3014 10.1741 57.0102 10.1434 56.6986C10.1605 56.4295 10.2635 56.1729 10.4375 55.9664C10.6114 55.7599 10.8471 55.6144 11.1101 55.5512C11.3424 55.4771 11.5451 55.3314 11.689 55.1349C11.8328 54.9385 11.9104 54.7015 11.9104 54.4583C11.9104 54.2151 11.8328 53.9781 11.689 53.7817C11.5451 53.5853 11.3424 53.4395 11.1101 53.3654C10.8467 53.3011 10.6104 53.1555 10.4348 52.9495C10.2592 52.7435 10.1532 52.4876 10.1319 52.218C10.1372 52.0238 10.197 51.835 10.3045 51.673H26.4668C26.6757 51.8751 26.7958 52.1516 26.8005 52.4418C26.7785 52.7046 26.6737 52.9538 26.5011 53.1537C26.3286 53.3536 26.097 53.4939 25.8396 53.5547C25.6073 53.6288 25.4045 53.7746 25.2607 53.971C25.1168 54.1675 25.0393 54.4044 25.0393 54.6476C25.0393 54.8909 25.1168 55.1278 25.2607 55.3242C25.4045 55.5207 25.6073 55.6665 25.8396 55.7405C26.1023 55.8051 26.3379 55.9509 26.5125 56.1569C26.6871 56.363 26.792 56.6189 26.812 56.8879C26.7936 57.1655 26.6829 57.429 26.4974 57.6369C26.3119 57.8447 26.0622 57.9849 25.7878 58.0353C25.5323 58.1014 25.3072 58.253 25.1505 58.4648C24.9938 58.6767 24.9148 58.9358 24.927 59.1988C24.9391 59.4618 25.0416 59.7126 25.2172 59.9091C25.3928 60.1057 25.6308 60.2361 25.8914 60.2785C26.2045 60.3065 26.4978 60.4429 26.7206 60.664C26.9434 60.8851 27.0816 61.177 27.1112 61.489C27.108 61.6375 27.0736 61.7837 27.0101 61.9181C26.9467 62.0525 26.8557 62.1721 26.743 62.2692V62.2463ZM18.3252 18.9722C21.7461 18.9768 25.0255 20.3341 27.4438 22.7466C29.8622 25.159 31.2221 28.4294 31.2251 31.8403C31.2498 33.7271 31.0293 35.6092 30.5692 37.4396C29.5508 41.5702 26.9731 47.4506 26.087 49.4069H10.5519C9.66587 47.4506 7.0997 41.5759 6.06978 37.4453C5.60936 35.6131 5.39079 33.7289 5.41961 31.8403C5.42265 28.4284 6.78333 25.1571 9.20295 22.7445C11.6226 20.332 14.9034 18.9752 18.3252 18.9722V18.9722Z" fill="#082755"/>
<path d="M2.39267 5.40424C2.28601 5.26389 2.15237 5.14613 1.99955 5.05787C1.84673 4.9696 1.6778 4.91258 1.50263 4.89015C1.32747 4.86771 1.14957 4.88031 0.979341 4.92721C0.809112 4.97411 0.649963 5.05436 0.511194 5.16328C0.371169 5.27245 0.254209 5.40819 0.167062 5.56266C0.0799154 5.71712 0.0243072 5.88727 0.00344571 6.06328C-0.0174158 6.23928 -0.00311769 6.41767 0.0455151 6.58813C0.0941479 6.7586 0.176153 6.91778 0.286799 7.05649L7.15101 15.748C7.27664 15.9067 7.43658 16.035 7.6189 16.1234C7.80122 16.2118 8.00121 16.258 8.20394 16.2586H8.24997C8.53433 16.2512 8.80873 16.1526 9.03248 15.9775C9.31265 15.7571 9.49454 15.4356 9.53881 15.0825C9.55963 14.9076 9.54544 14.7304 9.49704 14.561C9.44864 14.3916 9.36701 14.2335 9.25688 14.0958L2.39267 5.40424ZM8.31902 15.0653C8.28843 15.0919 8.25012 15.1079 8.2097 15.1112C8.17967 15.1124 8.14981 15.1062 8.12273 15.0932C8.09565 15.0802 8.07217 15.0608 8.05435 15.0366L1.19014 6.3451C1.16065 6.30548 1.14636 6.25663 1.14986 6.20742C1.15329 6.18248 1.16167 6.15847 1.17451 6.1368C1.18735 6.11513 1.2044 6.09623 1.22466 6.0812C1.25656 6.05382 1.29767 6.03948 1.33973 6.04104C1.36448 6.0431 1.38851 6.05029 1.41031 6.06214C1.43211 6.074 1.45118 6.09026 1.46632 6.10989L8.35354 14.8014C8.36947 14.8203 8.38128 14.8423 8.38822 14.866C8.39515 14.8897 8.39706 14.9146 8.39382 14.9391C8.39039 14.964 8.38201 14.988 8.36917 15.0097C8.35633 15.0314 8.33928 15.0503 8.31902 15.0653V15.0653Z" fill="#082755"/>
<path d="M27.254 15.9316C27.4735 16.0784 27.732 16.1563 27.9963 16.1553H28.0423C28.254 16.1496 28.4614 16.0947 28.6482 15.9952C28.835 15.8956 28.9959 15.754 29.1182 15.5816L34.7742 7.0909C34.8731 6.94537 34.9419 6.78159 34.9765 6.60918C35.0111 6.43677 35.0107 6.25921 34.9755 6.08693C34.9027 5.73967 34.6961 5.43479 34.4002 5.23785C34.1037 5.04313 33.742 4.97306 33.394 5.0429C33.0459 5.11274 32.7396 5.31683 32.5417 5.61076L26.88 14.1015C26.6851 14.3975 26.6148 14.7582 26.6844 15.1055C26.759 15.4443 26.9634 15.7408 27.254 15.9316V15.9316ZM27.8294 14.7096L33.4911 6.22461C33.5038 6.20301 33.5213 6.18457 33.5423 6.17066C33.5632 6.15675 33.587 6.14774 33.6119 6.1443C33.6337 6.13482 33.6572 6.12993 33.6809 6.12993C33.7047 6.12993 33.7282 6.13482 33.75 6.1443C33.7718 6.15757 33.7906 6.17507 33.8054 6.19577C33.8203 6.21647 33.8308 6.23994 33.8363 6.26477C33.8535 6.31105 33.8535 6.36192 33.8363 6.4082L28.1574 14.9161C28.1408 14.9424 28.1179 14.964 28.0908 14.9791C28.0636 14.9941 28.0331 15.0021 28.002 15.0022C27.9639 15.0008 27.9266 14.991 27.8927 14.9735C27.8505 14.9434 27.8217 14.8981 27.8121 14.8473C27.8076 14.8236 27.8078 14.7992 27.8128 14.7756C27.8177 14.752 27.8273 14.7295 27.8409 14.7096H27.8294Z" fill="#082755"/>
<path d="M18.0426 13.9466H18.1462C18.4835 13.934 18.8038 13.7955 19.0436 13.5586C19.2834 13.3216 19.4251 13.0035 19.4408 12.6673L19.9183 1.39409C19.892 1.06922 19.7476 0.765122 19.5122 0.538991C19.2768 0.312861 18.9666 0.18028 18.64 0.166184C18.3135 0.152088 17.993 0.257447 17.7388 0.462447C17.4847 0.667447 17.3145 0.957962 17.2601 1.27935L16.7825 12.5583C16.7748 12.7335 16.8019 12.9086 16.8623 13.0734C16.9227 13.2382 17.0152 13.3895 17.1345 13.5185C17.2537 13.6475 17.3974 13.7518 17.5572 13.8253C17.717 13.8987 17.8898 13.94 18.0656 13.9466H18.0426ZM17.9103 12.6214L18.4108 1.33099C18.4117 1.30499 18.4177 1.27941 18.4285 1.25577C18.4394 1.23212 18.4549 1.21088 18.4741 1.1933C18.5047 1.16675 18.543 1.15067 18.5835 1.1474C18.6089 1.14673 18.6342 1.1521 18.6572 1.16307C18.6802 1.17404 18.7003 1.1903 18.7158 1.21051C18.7348 1.22769 18.7494 1.24915 18.7584 1.2731C18.7674 1.29705 18.7706 1.32279 18.7676 1.3482L18.29 12.6214C18.2885 12.6706 18.2679 12.7173 18.2324 12.7515C18.197 12.7858 18.1495 12.805 18.1001 12.8049C18.0749 12.8044 18.05 12.7985 18.0272 12.7876C18.0043 12.7767 17.9841 12.7611 17.9678 12.7418C17.9507 12.7266 17.9367 12.7081 17.9268 12.6874C17.917 12.6667 17.9113 12.6443 17.9103 12.6214V12.6214Z" fill="#082755"/>
<path d="M10.173 29.6946C10.5029 29.7154 10.8281 29.6073 11.0794 29.3931C11.3308 29.1789 11.4886 28.8755 11.5193 28.5472C11.5368 28.2067 11.5869 27.8686 11.6689 27.5375C11.8909 26.7217 12.3418 25.986 12.9686 25.4169C13.5954 24.8478 14.3721 24.469 15.2075 24.3248C15.5844 24.2307 15.97 24.175 16.3582 24.1584C16.5237 24.1547 16.6868 24.1185 16.8383 24.0519C16.9898 23.9853 17.1266 23.8896 17.2409 23.7702C17.3552 23.6509 17.4449 23.5103 17.5047 23.3564C17.5645 23.2025 17.5934 23.0383 17.5895 22.8733C17.5805 22.5401 17.4402 22.2238 17.1989 21.9929C16.9577 21.7621 16.635 21.6352 16.3007 21.6399C13.9359 21.6915 9.3962 23.1545 9.02221 28.3349C9.00801 28.4996 9.02654 28.6654 9.07672 28.8229C9.1269 28.9805 9.20775 29.1265 9.31465 29.2528C9.42155 29.3791 9.55238 29.4832 9.69966 29.559C9.84695 29.6348 10.0078 29.6809 10.173 29.6946Z" fill="#082755"/>
</g>
<defs>
<clipPath id="clip0_5_137">
<rect width="35" height="65" fill="white"/>
</clipPath>
</defs>
</svg>
