<svg width="49" height="62" viewBox="0 0 49 62" fill="none" xmlns="http://www.w3.org/2000/svg">
<g clip-path="url(#clip0_5_157)">
<path d="M49.0013 23.3084C49.0024 19.0436 47.7354 14.8742 45.3604 11.3276C42.9855 7.78103 39.6093 5.01649 35.6589 3.38366C31.7085 1.75082 27.3613 1.32303 23.1671 2.15438C18.9729 2.98573 15.1201 5.03888 12.096 8.05417C9.07185 11.0695 7.01221 14.9114 6.17755 19.0942C5.3429 23.277 5.77072 27.6127 7.4069 31.553C9.04309 35.4933 11.8141 38.8611 15.3696 41.2306C18.9251 43.6002 23.1053 44.8649 27.3815 44.8649C33.1127 44.859 38.6075 42.5862 42.6605 38.545C46.7136 34.5038 48.9939 29.0242 49.0013 23.3084V23.3084ZM46.7707 23.3084C46.7719 24.2802 46.6992 25.2507 46.5532 26.2115C43.5903 28.29 40.31 29.8769 36.8391 30.911C37.0616 29.9734 37.2219 29.0222 37.3187 28.0635C37.6447 23.8309 37.0139 19.5794 35.4729 15.6223C38.2314 14.8999 40.8638 13.7635 43.2799 12.2521C45.5465 15.4964 46.7645 19.3542 46.7707 23.3084ZM36.209 27.9523C36.0995 29.0622 35.8999 30.1614 35.6123 31.2391C30.1872 32.5205 24.5021 32.1583 19.2845 30.1991L18.8775 30.0323C18.7399 29.3464 18.634 28.6512 18.5596 27.9467C18.1191 23.4975 19.1507 19.0816 20.6619 15.2608C23.3146 16.0446 26.0648 16.4509 28.8314 16.4677C30.6843 16.4767 32.5329 16.2903 34.3465 15.9115C35.7238 19.5655 36.6216 23.7255 36.209 27.9523ZM42.3821 11.0396L42.633 11.3566C40.2924 12.8056 37.7447 13.8913 35.077 14.5768C33.5347 10.8223 31.5103 7.28343 29.0544 4.04879C31.6319 4.26563 34.1395 4.99609 36.4288 6.1969C38.718 7.39771 40.7424 9.04446 42.3821 11.0396ZM27.3815 3.97092H27.5767C30.1717 7.29272 32.3096 10.9456 33.9338 14.8326C29.6724 15.6654 25.2724 15.4593 21.108 14.232C22.7009 10.5746 24.7446 7.1296 27.1919 3.97649L27.3815 3.97092ZM25.7086 4.04879C23.4107 7.09316 21.4879 10.4019 19.9816 13.9038C17.4673 13.0916 15.064 11.9707 12.8271 10.5669C16.1155 6.81329 20.7347 4.47696 25.7142 4.04879H25.7086ZM7.99787 23.3084C8.00274 18.9931 9.451 14.8028 12.1133 11.4011C14.4368 12.8843 16.9379 14.0708 19.5578 14.9327C18.0243 18.8592 16.9926 23.3918 17.4499 28.0635C17.5001 28.5696 17.5726 29.0646 17.6562 29.5596C14.1461 28.0777 10.8894 26.0586 8.00345 23.5753C8.00345 23.4864 7.99787 23.3974 7.99787 23.3084ZM8.08152 25.1103C11.0494 27.519 14.3684 29.4619 17.9239 30.8721C18.9388 35.2101 21.3144 39.1087 25.0171 42.4957C20.6328 41.9503 16.5658 39.9307 13.487 36.7702C10.4082 33.6096 8.50155 29.4969 8.08152 25.1103V25.1103ZM27.3815 42.6403H26.8741C22.9315 39.3645 20.3552 35.5938 19.1897 31.3392C22.3973 32.4732 25.774 33.0579 29.1771 33.0689C31.2187 33.0654 33.2541 32.8473 35.2498 32.4182C33.9617 36.2223 31.4969 39.6482 27.8945 42.6292L27.3815 42.6403ZM29.7515 42.4957C32.9132 39.7176 35.2508 36.1283 36.5101 32.1179C39.9673 31.1898 43.254 29.7179 46.2465 27.7576C45.3288 31.5971 43.2576 35.0656 40.3099 37.6993C37.3622 40.333 33.6786 42.0064 29.7515 42.4957V42.4957Z" fill="#082755"/>
<path d="M23.2042 52.7234H16.7802C16.1694 52.7234 15.5647 52.8433 15.0004 53.0764C14.4362 53.3095 13.9235 53.6512 13.4916 54.0819C13.0598 54.5126 12.7172 55.0239 12.4835 55.5867C12.2498 56.1494 12.1295 56.7526 12.1295 57.3617C12.1295 57.9708 12.2498 58.5739 12.4835 59.1367C12.7172 59.6994 13.0598 60.2108 13.4916 60.6415C13.9235 61.0722 14.4362 61.4138 15.0004 61.6469C15.5647 61.88 16.1694 62 16.7802 62H37.9706C39.204 62 40.387 61.5113 41.2592 60.6415C42.1313 59.7716 42.6213 58.5918 42.6213 57.3617C42.6213 56.1315 42.1313 54.9518 41.2592 54.0819C40.387 53.212 39.204 52.7234 37.9706 52.7234H31.5633V51.6556C31.5625 51.0687 31.4371 50.4887 31.1952 49.9537C33.788 49.5793 36.3375 48.9515 38.807 48.0795C39.1263 47.94 39.3815 47.6863 39.5225 47.3684C39.6634 47.0505 39.6799 46.6915 39.5686 46.3621C39.4574 46.0328 39.2265 45.7569 38.9214 45.5889C38.6163 45.4208 38.2592 45.3729 37.9204 45.4544C33.2697 47.0673 28.9033 47.7235 24.9441 47.401C12.9548 46.4277 2.82241 35.0377 2.78896 22.5409C2.77376 20.5696 2.99466 18.6036 3.44697 16.6846C4.18231 13.6631 5.57809 10.841 7.53449 8.42017C9.50058 5.96041 12.0128 3.98988 14.8731 2.66398C15.0464 2.59475 15.2039 2.49151 15.3365 2.36039C15.469 2.22927 15.5738 2.07294 15.6446 1.90067C15.7154 1.7284 15.7508 1.5437 15.7487 1.35753C15.7466 1.17135 15.707 0.987503 15.6323 0.816878C15.5576 0.646253 15.4493 0.492331 15.3138 0.364242C15.1783 0.236152 15.0184 0.136506 14.8436 0.0712126C14.6687 0.00591941 14.4826 -0.0236901 14.296 -0.0158595C14.1095 -0.00802888 13.9265 0.0370823 13.7578 0.116798C10.4864 1.61812 7.61373 3.86398 5.37084 6.67385C3.15171 9.42035 1.56924 12.6224 0.736833 16.0506C0.231702 18.1787 -0.0154284 20.3596 0.000745265 22.5465C0.0397802 36.0332 10.6963 48.3464 23.5277 50.0538C23.3142 50.5629 23.2042 51.1093 23.2042 51.6611V52.7234ZM24.3195 54.948C24.6153 54.948 24.899 54.8308 25.1081 54.6222C25.3173 54.4136 25.4348 54.1307 25.4348 53.8357V51.6556C25.4354 51.3904 25.4907 51.1281 25.5972 50.8851C25.7037 50.6421 25.8591 50.4235 26.0538 50.2429C26.3382 50.2429 26.6114 50.2429 26.9014 50.2429C27.459 50.2429 28.0724 50.2429 28.6635 50.1817C28.8721 50.3636 29.0396 50.5875 29.155 50.8387C29.2703 51.0898 29.3309 51.3626 29.3327 51.6389V53.8357C29.3327 54.1307 29.4502 54.4136 29.6594 54.6222C29.8685 54.8308 30.1522 54.948 30.448 54.948H37.9873C38.6292 54.948 39.2448 55.2023 39.6986 55.6549C40.1525 56.1076 40.4075 56.7215 40.4075 57.3617C40.4075 58.0018 40.1525 58.6158 39.6986 59.0684C39.2448 59.5211 38.6292 59.7754 37.9873 59.7754H16.7969C16.1551 59.7754 15.5395 59.5211 15.0856 59.0684C14.6317 58.6158 14.3768 58.0018 14.3768 57.3617C14.3768 56.7215 14.6317 56.1076 15.0856 55.6549C15.5395 55.2023 16.1551 54.948 16.7969 54.948H24.3195Z" fill="#082755"/>
</g>
<defs>
<clipPath id="clip0_5_157">
<rect width="49" height="62" fill="white"/>
</clipPath>
</defs>
</svg>
