<svg width="75" height="44" viewBox="0 0 75 44" fill="none" xmlns="http://www.w3.org/2000/svg">
<path d="M10.2568 23.6426C9.75931 23.7475 9.2966 23.9755 8.91171 24.3052C8.52682 24.6349 8.23223 25.0558 8.05531 25.5287C7.8784 26.0015 7.82491 26.5111 7.8998 27.01C7.9747 27.5088 8.17555 27.9808 8.4837 28.3821L7.21717 35.7916C7.19042 35.9489 7.19873 36.1101 7.24155 36.2639C7.28436 36.4176 7.36062 36.5602 7.46497 36.6816C7.56845 36.8032 7.69747 36.9009 7.843 36.9679C7.98853 37.0348 8.14705 37.0694 8.30749 37.0693H13.4727C13.6313 37.0709 13.7883 37.0384 13.9331 36.9743C14.0778 36.9101 14.2069 36.8157 14.3115 36.6975C14.4161 36.5793 14.4937 36.44 14.539 36.2894C14.5843 36.1387 14.5962 35.9801 14.574 35.8244L13.4892 28.1036C13.8962 27.426 14.0164 26.6162 13.8235 25.851C13.6305 25.0858 13.1402 24.4274 12.4595 24.0194L12.4595 20.017L19.2822 22.9382L19.2822 39.6738C19.2822 40.6673 19.6802 41.62 20.3886 42.3225C21.0971 43.0249 22.0579 43.4196 23.0598 43.4196H54.1172C55.1162 43.4152 56.0728 43.0187 56.7776 42.3167C57.4825 41.6147 57.8782 40.6644 57.8782 39.6738L57.8782 21.9117L74.0898 14.939C74.2941 14.8515 74.4669 14.7047 74.5854 14.5179C74.7039 14.3311 74.7625 14.1131 74.7536 13.8926C74.7447 13.6721 74.6685 13.4594 74.5353 13.2826C74.402 13.1059 74.2179 12.9733 74.0072 12.9024L37.1347 0.420283C36.8927 0.333539 36.6278 0.333539 36.3858 0.420283C23.7646 5.17068 3.02662 12.7276 1.11032 12.8423C0.855694 12.8402 0.608218 12.9257 0.410004 13.0842C0.21179 13.2427 0.075084 13.4644 0.0231511 13.7116C-0.0287819 13.9588 0.00726682 14.2161 0.125162 14.4399C0.243058 14.6637 0.435516 14.8401 0.669785 14.939L10.2568 19.0615L10.2568 23.6426ZM9.60705 34.8852L10.7414 28.2074C10.7737 28.0191 10.7555 27.8257 10.6889 27.6466C10.6222 27.4674 10.5093 27.3087 10.3615 27.1863C10.2558 27.0981 10.1744 26.9848 10.1247 26.8571C10.0749 26.7293 10.0585 26.5912 10.077 26.4554C10.0954 26.3197 10.1481 26.1908 10.2302 26.0807C10.3123 25.9705 10.4211 25.8827 10.5465 25.8253C10.6719 25.768 10.8099 25.7429 10.9477 25.7525C11.0854 25.7622 11.2185 25.8061 11.3346 25.8803C11.4507 25.9545 11.546 26.0565 11.6117 26.177C11.6775 26.2974 11.7115 26.4324 11.7106 26.5693C11.7151 26.7704 11.6422 26.9656 11.5068 27.1153C11.4026 27.2328 11.3251 27.3711 11.2795 27.5209C11.2339 27.6707 11.2213 27.8285 11.2425 27.9835L12.2062 34.8961L9.60705 34.8852ZM55.6756 39.6738C55.6756 40.088 55.5096 40.4852 55.2143 40.7781C54.9189 41.0709 54.5184 41.2355 54.1007 41.2355H23.0432C22.6284 41.2312 22.2321 41.0647 21.9403 40.7723C21.6485 40.4799 21.4848 40.0852 21.4849 39.6738L21.4849 23.8829L36.9585 30.5389C37.0975 30.599 37.2474 30.6301 37.399 30.6301C37.5506 30.6301 37.7006 30.599 37.8396 30.5389L55.6921 22.8618L55.6756 39.6738ZM4.46386 14.1691C12.4265 11.7175 31.573 4.57551 36.7988 2.61529L70.6041 14.0818L37.3825 28.3493L15.4276 18.925L33.9519 16.5061C35.0047 17.0651 36.1892 17.3347 37.3825 17.2869C39.9376 17.2869 41.8594 16.2768 41.8594 14.939C41.8594 13.6013 39.9376 12.5966 37.3825 12.5966C35.1799 12.5966 33.4453 13.3446 33.0103 14.4094L11.5344 17.2214L4.46386 14.1691ZM34.0014 14.939C34.0014 14.4312 35.3175 13.6886 37.3825 13.6886C39.4475 13.6886 40.7581 14.4312 40.7581 14.939C40.7581 15.4468 39.442 16.1949 37.3825 16.1949C35.323 16.1949 34.0014 15.4523 34.0014 14.939Z" fill="#082755"/>
</svg>
