<svg width="62" height="50" viewBox="0 0 62 50" fill="none" xmlns="http://www.w3.org/2000/svg">
<path d="M34.3619 0H0.983033C0.711233 0.0176709 0.456923 0.139692 0.273648 0.340371C0.0903737 0.541049 -0.00756406 0.804727 0.000456459 1.07588V41.6161C-0.00612955 41.8869 0.0923004 42.1498 0.27529 42.3501C0.458279 42.5505 0.711753 42.6729 0.983033 42.692H25.6394V48.8669C25.6394 49.6109 26.5013 50.2919 27.1219 49.794L29.2019 48.0771L30.7361 46.8353C30.8683 46.7266 31.0579 46.6064 31.2245 46.4977C31.3193 46.5574 31.4078 46.6264 31.4889 46.7037C31.9371 47.1501 32.4829 47.5163 32.9656 47.9169L35.264 49.7711C35.3397 49.844 35.4303 49.8997 35.5296 49.9344C35.6289 49.9691 35.7346 49.982 35.8394 49.9722C35.9442 49.9625 36.0457 49.9302 36.1368 49.8777C36.2279 49.8252 36.3065 49.7537 36.3673 49.6681C36.4904 49.5698 36.5884 49.4439 36.6533 49.3007C36.7183 49.1575 36.7482 49.001 36.7408 48.844V42.692H61.0409C61.1657 42.6939 61.2894 42.6688 61.4035 42.6184C61.5176 42.568 61.6193 42.4935 61.7017 42.4001C61.7017 42.4001 61.7017 42.4001 61.7361 42.3658C61.9186 42.166 62.0155 41.9032 62.0062 41.6333V1.07588C62.0156 0.803405 61.9174 0.538106 61.7326 0.336949C61.5478 0.135793 61.2912 0.0148185 61.0179 0L34.3619 0ZM25.6394 40.546H1.96561V2.14605H25.6394V40.546ZM34.7526 46.7266L31.69 44.2314C31.5439 44.1308 31.3706 44.0768 31.1929 44.0768C31.0153 44.0768 30.842 44.1308 30.6959 44.2314L27.5815 46.738V2.14605H34.7526V46.7266ZM36.7178 2.14605H60.0296V40.546H36.7178V2.14605Z" fill="#082755"/>
</svg>
