<svg width="676" height="505" viewBox="0 0 676 505" fill="none" xmlns="http://www.w3.org/2000/svg">
<path d="M471.011 135.339C541.781 230.936 651.52 207.245 672.285 280.43C681.647 313.349 671.643 352.833 649.306 371.539C599.216 413.461 530.653 420.522 467.378 435.49C451.963 439.108 452.377 439.311 438.529 442.92C277.611 484.948 263.43 501.279 213.567 504.066C198.257 504.932 102.809 510.353 44.6524 451.647C-12.404 394.105 0.743104 309.026 5.49463 278.455C29.6029 122.14 191.948 -8.62529 313.999 1.53986C354.542 4.92636 386.036 22.7021 387.325 23.4378C387.366 23.4613 387.388 23.4739 387.428 23.4977C437.314 52.4795 437.974 90.7114 471.011 135.339Z" fill="url(#paint0_linear_8_6)" fill-opacity="0.8"/>
<defs>
<linearGradient id="paint0_linear_8_6" x1="369.45" y1="6.91778" x2="319.737" y2="518.033" gradientUnits="userSpaceOnUse">
<stop offset="0.1875" stop-color="#F7744A"/>
<stop offset="1" stop-color="#FFA800"/>
</linearGradient>
</defs>
</svg>
