<svg width="672" height="525" viewBox="0 0 672 525" fill="none" xmlns="http://www.w3.org/2000/svg">
<path d="M449.598 120.516C529.664 210.636 636.477 175.727 664.522 248.022C677.159 280.538 671.187 321.637 650.846 342.846C605.23 390.383 537.714 404.33 476.258 425.787C461.284 430.987 461.717 431.152 448.3 436.186C292.409 494.781 279.945 512.772 230.607 520.53C215.459 522.923 121.024 537.861 57.2312 483.97C-5.3502 431.152 -0.849183 343.424 0.795418 311.898C9.01842 150.721 157.379 1.84006 279.858 0.106968C320.536 -0.458634 353.664 14.4811 355.033 15.1069C355.077 15.1269 355.1 15.1378 355.144 15.1581C407.708 39.6707 412.221 78.444 449.598 120.516Z" fill="url(#paint0_linear_12_523)"/>
<defs>
<linearGradient id="paint0_linear_12_523" x1="335.58" y1="0.0913086" x2="335.58" y2="524.228" gradientUnits="userSpaceOnUse">
<stop stop-color="#F7744A"/>
<stop offset="1" stop-color="#FFB423"/>
</linearGradient>
</defs>
</svg>
